<?xml version="1.0" encoding="UTF-8"?>
<svg enable-background="new 0 0 168.403 149.797" viewBox="0 0 168.403 149.797" xmlns="http://www.w3.org/2000/svg">
 <path d="m3.736 127.3s-4.333-10.666-3.667-13.166 15.333-35.667 16-38.167 0-4.333 2.333-6.5c0 0 7.667-6.667 11.167-8.167s3.333-2 4.5-2.833 7.5-4 8.833-7.667 3.5-13.833 3.5-13.833-2-0.833-2.5-2.833-1.833-4-2.333-4.167-2.833-3.333 3.333-5.833c0 0 0.833-17 14.333-19.5l2.5-3.167s26.167 2.834 21.667 22.667l1.167 1 0.833-0.833s10 8.333 6.167 12.167-12.167 2.5-12.167 2.5l-0.667 5.167s7.167 0.167 8.667 1 2 1.167 2.667 0.667 2.833 0 2.833 0l-1 1.667 1.5 0.167-0.167 1.167s-5.5-0.833-7.167 3c0 0 5.167 2.5 7.5 2.833s9.833 4 11.667 6 9 13.833 11.167 17.667 3.167 5 3.167 5 1.5-1.167 2.667-0.833l6.333-9s3.167-1.5 2.833 2.167l4.5-4.667-2-3s4.167-3 4.667-5.167c0 0-2.667-1-3.833-2.167s-5.167-3.5-5.167-3.5 6-3.833 15 1.167 20 14.5 23.833 14.333c0 0-5.833 9.333-16 13.667 0 0-0.334-2-2.167-3.5s-7-6.667-7-6.667l-4.5 2.833 1.5 3.333-2.5 2.333 0.167 4s-1.667 0.333-2.333 1.667-0.833 1.333-1.5 1.667-2 2.333-2 2.333 2.333 5.833 1.667 7.5-1.667 4.667-2.167 5.667-0.667 5.667-3.167 5.667-4.833 0.166-5.5 0.666-5.833 2.834-7.5 2.834-3.667 0-4.333 0-4-1.5-4.667-2.166-1.333-0.334-1.333 0.166 0.5 6.833 3.5 11.666 5.5 12.168 5.5 12.168 2.5 7.499 0.333 11.332l-105.5-3.166c1e-3 -2e-3 -4.666-17.002-5.166-19.336z" fill="#be0926"/>
 <path d="m47.749,38.119c0,0-1.001,7.147-.5,9.721l3.574-2.788c0,0-1-5.075-.786-6.219 0,0-2.002-.358-2.431-.93s.143.216.143.216z" fill="#be0926"/>
 <path d="m83.347,37.261c0,0-.285,7.863.215,8.864h.786c0,0-.643-6.934-.572-8.649l-.429-.215z" fill="#be0926"/>
 <path d="m42.816,26.396c0,0-5.004-.429-4.646,1s4.146.786 4.146.786l.5-1.786z" fill="#be0926"/>
 <path d="m56.469,6.523c0,0-16.512.214-18.8,18.014 0,0 .215-18.585 19.229-18.8l-.429.786z" fill="#be0926"/>
 <path d="m50.608 4.306s12.938-10.722 30.237 6.219c1e-3 0-13.724-18.729-30.237-6.219z" fill="#be0926"/>
 <path d="m79.702 17.03s7.077 5.504 9.078 8.435l0.071-0.715c1e-3 0-2.358-4.075-9.149-7.72z" fill="#be0926"/>
 <path d="m87.779 26.251s1.072-3.502 1.215-4.217 0.787-1.358 1.358-0.143 1 2.502 0.786 3.002-1.715 1.787-3.359 1.358z" fill="#be0926"/>
</svg>
